<?xml version="1.0" encoding="utf-8"?>

<!-- License Agreement at http://iconmonstr.com/license/ -->

<!DOCTYPE svg PUBLIC "-//W3C//DTD SVG 1.1//EN" "http://www.w3.org/Graphics/SVG/1.1/DTD/svg11.dtd">
<svg version="1.1" xmlns="http://www.w3.org/2000/svg" xmlns:xlink="http://www.w3.org/1999/xlink" x="0px" y="0px"
	 width="280px" height="280px" viewBox="0 0 512 512" enable-background="new 0 0 512 512" xml:space="preserve">
<path d="M23 17h1v2h-6.731l2.731 4h-2.627l-2.736-4h-5.273l-2.736 4h-2.628l2.732-4h-6.732v-2h1v-16h22v16zm-2-14h-18v14h18v-14zm-1 13h-2v-1h-4v1h-10v-12h16v12zm-12.339-6.814l.957 3.571-.909.243-.692-2.584-.806.476-.028-.012-.183-.684 1.488-.964.173-.046zm3.17.763l.935-.251.207.771-.935.25.255.955-.872.233-.256-.954-.938.251-.206-.77.938-.251-.245-.915.872-.234.245.915zm3.728 1.216l-.909.243-.692-2.584-.806.476-.028-.011-.183-.685 1.488-.963.173-.047.957 3.571zm3.25-2.419l.191.712-2.476.663-.191-.712 2.476-.663zm-.271-1.013l.191.712-2.476.663-.191-.711 2.476-.664z"  style="fill:rgb(14, 232, 210);stroke:blue;stroke-width:0;fill-rule:nonzero;"/>
</svg>